<svg width="478" height="144" viewBox="0 0 478 144" fill="none" xmlns="http://www.w3.org/2000/svg">
<path d="M56.352 38.32V53.296H38.304V106H19.488V53.296H1.632V38.32H56.352ZM83.1855 38.32V77.584C83.1855 81.232 84.0175 84.048 85.6815 86.032C87.4095 88.016 90.0015 89.008 93.4575 89.008C96.9135 89.008 99.5055 88.016 101.234 86.032C103.026 83.984 103.922 81.168 103.922 77.584V38.32H122.738V77.584C122.738 83.792 121.426 89.104 118.802 93.52C116.177 97.872 112.594 101.168 108.05 103.408C103.569 105.584 98.5775 106.672 93.0735 106.672C87.5695 106.672 82.6415 105.584 78.2895 103.408C74.0015 101.168 70.6095 97.872 68.1135 93.52C65.6815 89.168 64.4655 83.856 64.4655 77.584V38.32H83.1855ZM168.809 106L155.369 81.04H153.353V106H134.537V38.32H164.201C169.641 38.32 174.249 39.28 178.025 41.2C181.801 43.056 184.649 45.648 186.569 48.976C188.489 52.24 189.449 55.92 189.449 60.016C189.449 64.624 188.169 68.688 185.609 72.208C183.113 75.664 179.433 78.128 174.569 79.6L189.833 106H168.809ZM153.353 68.176H162.665C165.225 68.176 167.145 67.568 168.425 66.352C169.705 65.136 170.345 63.376 170.345 61.072C170.345 58.896 169.673 57.2 168.329 55.984C167.049 54.704 165.161 54.064 162.665 54.064H153.353V68.176ZM218.262 38.32V106H199.446V38.32H218.262ZM293.105 106H274.289L249.233 68.176V106H230.417V38.32H249.233L274.289 76.624V38.32H293.105V106Z" fill="white"/>
<path d="M348.464 60.592C347.376 58.8 345.872 57.424 343.952 56.464C342.096 55.504 339.888 55.024 337.328 55.024C332.592 55.024 328.848 56.56 326.096 59.632C323.408 62.704 322.064 66.832 322.064 72.016C322.064 77.84 323.504 82.288 326.384 85.36C329.328 88.368 333.584 89.872 339.152 89.872C345.744 89.872 350.448 86.896 353.264 80.944H334.352V67.408H369.488V85.648C368.016 89.232 365.84 92.592 362.96 95.728C360.144 98.864 356.56 101.456 352.208 103.504C347.856 105.488 342.896 106.48 337.328 106.48C330.544 106.48 324.528 105.04 319.28 102.16C314.096 99.216 310.064 95.152 307.184 89.968C304.368 84.72 302.96 78.736 302.96 72.016C302.96 65.36 304.368 59.44 307.184 54.256C310.064 49.008 314.096 44.944 319.28 42.064C324.464 39.12 330.448 37.648 337.232 37.648C345.744 37.648 352.784 39.696 358.352 43.792C363.92 47.888 367.376 53.488 368.72 60.592H348.464Z" fill="#4053FF"/>
<path d="M459.186 54L455 58.23L468.598 72L455 85.77L459.186 90L475.608 73.4068C476.379 72.6275 476.379 71.3725 475.608 70.5932L459.186 54Z" fill="white" stroke="white" stroke-width="3"/>
<path d="M408.6 48.472V38C391.6 39.7 378 54.354 378 72C378 89.646 391.6 104.3 408.6 106V95.528C398.4 93.896 388.2 83.968 388.2 72C388.2 60.032 398.4 50.104 408.6 48.472ZM435.698 68.6H446C444.402 51.6 432.4 39.598 415.4 38V48.472C425.6 49.934 434.236 58.4 435.698 68.6ZM415.4 95.528V106C432.4 104.402 444.402 92.4 446 75.4H435.698C434.236 85.6 425.6 94.066 415.4 95.528Z" fill="#4053FF"/>
<path d="M412.5 62C406.693 62 402 66.6935 402 72.5C402 78.3065 406.693 83 412.5 83C418.306 83 423 78.3065 423 72.5C423 66.6935 418.306 62 412.5 62Z" fill="white"/>
</svg>
